<mxfile host="app.diagrams.net" modified="2023-11-22T06:41:07.016Z" agent="Mozilla/5.0 (X11; Linux x86_64) AppleWebKit/537.36 (KHTML, like Gecko) Chrome/114.0.0.0 Safari/537.36" etag="tykEnmgwFsZcrD25DDNq" version="22.1.3" type="github">
  <diagram name="Trang-1" id="ofIe6lHjDhhZ4KXh0Yck">
    <mxGraphModel dx="2049" dy="1143" grid="1" gridSize="10" guides="1" tooltips="1" connect="1" arrows="1" fold="1" page="1" pageScale="1" pageWidth="1654" pageHeight="2336" math="0" shadow="0">
      <root>
        <mxCell id="0" />
        <mxCell id="1" parent="0" />
        <mxCell id="7XmCqF9aRJ6k3fZhvdl3-186" value="" style="edgeStyle=orthogonalEdgeStyle;rounded=0;orthogonalLoop=1;jettySize=auto;html=1;" edge="1" parent="1" source="7XmCqF9aRJ6k3fZhvdl3-29" target="7XmCqF9aRJ6k3fZhvdl3-185">
          <mxGeometry relative="1" as="geometry" />
        </mxCell>
        <mxCell id="7XmCqF9aRJ6k3fZhvdl3-29" value="mssql-2016" style="image;aspect=fixed;perimeter=ellipsePerimeter;html=1;align=center;shadow=0;dashed=0;spacingTop=3;image=img/lib/active_directory/windows_server_2.svg;" vertex="1" parent="1">
          <mxGeometry x="760" y="455" width="40" height="50" as="geometry" />
        </mxCell>
        <mxCell id="7XmCqF9aRJ6k3fZhvdl3-122" style="edgeStyle=orthogonalEdgeStyle;rounded=0;orthogonalLoop=1;jettySize=auto;html=1;" edge="1" parent="1" source="7XmCqF9aRJ6k3fZhvdl3-103" target="7XmCqF9aRJ6k3fZhvdl3-106">
          <mxGeometry relative="1" as="geometry" />
        </mxCell>
        <mxCell id="7XmCqF9aRJ6k3fZhvdl3-103" value="nginx" style="sketch=0;pointerEvents=1;shadow=0;dashed=0;html=1;strokeColor=none;fillColor=#005F4B;labelPosition=center;verticalLabelPosition=bottom;verticalAlign=top;align=center;outlineConnect=0;shape=mxgraph.veeam2.linux_server;" vertex="1" parent="1">
          <mxGeometry x="960" y="80" width="40" height="52" as="geometry" />
        </mxCell>
        <mxCell id="7XmCqF9aRJ6k3fZhvdl3-115" style="edgeStyle=orthogonalEdgeStyle;rounded=0;orthogonalLoop=1;jettySize=auto;html=1;" edge="1" parent="1" source="7XmCqF9aRJ6k3fZhvdl3-104" target="7XmCqF9aRJ6k3fZhvdl3-109">
          <mxGeometry relative="1" as="geometry" />
        </mxCell>
        <mxCell id="7XmCqF9aRJ6k3fZhvdl3-104" value="nginx-chat-call" style="sketch=0;pointerEvents=1;shadow=0;dashed=0;html=1;strokeColor=none;fillColor=#005F4B;labelPosition=center;verticalLabelPosition=bottom;verticalAlign=top;align=center;outlineConnect=0;shape=mxgraph.veeam2.linux_server;" vertex="1" parent="1">
          <mxGeometry x="1180" y="80" width="40" height="52" as="geometry" />
        </mxCell>
        <mxCell id="7XmCqF9aRJ6k3fZhvdl3-121" style="edgeStyle=orthogonalEdgeStyle;rounded=0;orthogonalLoop=1;jettySize=auto;html=1;" edge="1" parent="1" source="7XmCqF9aRJ6k3fZhvdl3-105" target="7XmCqF9aRJ6k3fZhvdl3-113">
          <mxGeometry relative="1" as="geometry" />
        </mxCell>
        <mxCell id="7XmCqF9aRJ6k3fZhvdl3-105" value="nginx" style="sketch=0;pointerEvents=1;shadow=0;dashed=0;html=1;strokeColor=none;fillColor=#005F4B;labelPosition=center;verticalLabelPosition=bottom;verticalAlign=top;align=center;outlineConnect=0;shape=mxgraph.veeam2.linux_server;" vertex="1" parent="1">
          <mxGeometry x="850" y="80" width="40" height="52" as="geometry" />
        </mxCell>
        <mxCell id="7XmCqF9aRJ6k3fZhvdl3-242" style="edgeStyle=orthogonalEdgeStyle;rounded=0;orthogonalLoop=1;jettySize=auto;html=1;entryX=0.5;entryY=1;entryDx=0;entryDy=0;" edge="1" parent="1" source="7XmCqF9aRJ6k3fZhvdl3-106" target="7XmCqF9aRJ6k3fZhvdl3-141">
          <mxGeometry relative="1" as="geometry" />
        </mxCell>
        <mxCell id="7XmCqF9aRJ6k3fZhvdl3-243" style="edgeStyle=orthogonalEdgeStyle;rounded=0;orthogonalLoop=1;jettySize=auto;html=1;entryX=0.25;entryY=0;entryDx=0;entryDy=0;" edge="1" parent="1" source="7XmCqF9aRJ6k3fZhvdl3-106" target="7XmCqF9aRJ6k3fZhvdl3-139">
          <mxGeometry relative="1" as="geometry" />
        </mxCell>
        <mxCell id="7XmCqF9aRJ6k3fZhvdl3-106" value="app-node-server" style="sketch=0;pointerEvents=1;shadow=0;dashed=0;html=1;strokeColor=none;fillColor=#005F4B;labelPosition=center;verticalLabelPosition=bottom;verticalAlign=top;align=center;outlineConnect=0;shape=mxgraph.veeam2.linux_server;" vertex="1" parent="1">
          <mxGeometry x="960" y="228" width="40" height="52" as="geometry" />
        </mxCell>
        <mxCell id="7XmCqF9aRJ6k3fZhvdl3-245" style="edgeStyle=orthogonalEdgeStyle;rounded=0;orthogonalLoop=1;jettySize=auto;html=1;" edge="1" parent="1" source="7XmCqF9aRJ6k3fZhvdl3-107" target="7XmCqF9aRJ6k3fZhvdl3-155">
          <mxGeometry relative="1" as="geometry" />
        </mxCell>
        <mxCell id="7XmCqF9aRJ6k3fZhvdl3-246" style="edgeStyle=orthogonalEdgeStyle;rounded=0;orthogonalLoop=1;jettySize=auto;html=1;" edge="1" parent="1" source="7XmCqF9aRJ6k3fZhvdl3-107" target="7XmCqF9aRJ6k3fZhvdl3-156">
          <mxGeometry relative="1" as="geometry" />
        </mxCell>
        <mxCell id="7XmCqF9aRJ6k3fZhvdl3-247" style="edgeStyle=orthogonalEdgeStyle;rounded=0;orthogonalLoop=1;jettySize=auto;html=1;" edge="1" parent="1" source="7XmCqF9aRJ6k3fZhvdl3-107" target="7XmCqF9aRJ6k3fZhvdl3-147">
          <mxGeometry relative="1" as="geometry" />
        </mxCell>
        <mxCell id="7XmCqF9aRJ6k3fZhvdl3-248" style="edgeStyle=orthogonalEdgeStyle;rounded=0;orthogonalLoop=1;jettySize=auto;html=1;" edge="1" parent="1" source="7XmCqF9aRJ6k3fZhvdl3-107" target="7XmCqF9aRJ6k3fZhvdl3-148">
          <mxGeometry relative="1" as="geometry" />
        </mxCell>
        <mxCell id="7XmCqF9aRJ6k3fZhvdl3-249" style="edgeStyle=orthogonalEdgeStyle;rounded=0;orthogonalLoop=1;jettySize=auto;html=1;" edge="1" parent="1" source="7XmCqF9aRJ6k3fZhvdl3-107" target="7XmCqF9aRJ6k3fZhvdl3-149">
          <mxGeometry relative="1" as="geometry" />
        </mxCell>
        <mxCell id="7XmCqF9aRJ6k3fZhvdl3-250" style="edgeStyle=orthogonalEdgeStyle;rounded=0;orthogonalLoop=1;jettySize=auto;html=1;" edge="1" parent="1" source="7XmCqF9aRJ6k3fZhvdl3-107" target="7XmCqF9aRJ6k3fZhvdl3-150">
          <mxGeometry relative="1" as="geometry" />
        </mxCell>
        <mxCell id="7XmCqF9aRJ6k3fZhvdl3-251" style="edgeStyle=orthogonalEdgeStyle;rounded=0;orthogonalLoop=1;jettySize=auto;html=1;" edge="1" parent="1" source="7XmCqF9aRJ6k3fZhvdl3-107" target="7XmCqF9aRJ6k3fZhvdl3-151">
          <mxGeometry relative="1" as="geometry" />
        </mxCell>
        <mxCell id="7XmCqF9aRJ6k3fZhvdl3-252" style="edgeStyle=orthogonalEdgeStyle;rounded=0;orthogonalLoop=1;jettySize=auto;html=1;" edge="1" parent="1" source="7XmCqF9aRJ6k3fZhvdl3-107" target="7XmCqF9aRJ6k3fZhvdl3-158">
          <mxGeometry relative="1" as="geometry" />
        </mxCell>
        <mxCell id="7XmCqF9aRJ6k3fZhvdl3-253" style="edgeStyle=orthogonalEdgeStyle;rounded=0;orthogonalLoop=1;jettySize=auto;html=1;" edge="1" parent="1" source="7XmCqF9aRJ6k3fZhvdl3-107" target="7XmCqF9aRJ6k3fZhvdl3-157">
          <mxGeometry relative="1" as="geometry" />
        </mxCell>
        <mxCell id="7XmCqF9aRJ6k3fZhvdl3-107" value="chat-call-server" style="sketch=0;pointerEvents=1;shadow=0;dashed=0;html=1;strokeColor=none;fillColor=#005F4B;labelPosition=center;verticalLabelPosition=bottom;verticalAlign=top;align=center;outlineConnect=0;shape=mxgraph.veeam2.linux_server;" vertex="1" parent="1">
          <mxGeometry x="1070" y="290" width="40" height="52" as="geometry" />
        </mxCell>
        <mxCell id="7XmCqF9aRJ6k3fZhvdl3-114" style="edgeStyle=orthogonalEdgeStyle;rounded=0;orthogonalLoop=1;jettySize=auto;html=1;" edge="1" parent="1" source="7XmCqF9aRJ6k3fZhvdl3-108" target="7XmCqF9aRJ6k3fZhvdl3-107">
          <mxGeometry relative="1" as="geometry" />
        </mxCell>
        <mxCell id="7XmCqF9aRJ6k3fZhvdl3-108" value="nginx-call-chat" style="sketch=0;pointerEvents=1;shadow=0;dashed=0;html=1;strokeColor=none;fillColor=#005F4B;labelPosition=center;verticalLabelPosition=bottom;verticalAlign=top;align=center;outlineConnect=0;shape=mxgraph.veeam2.linux_server;labelBorderColor=none;labelBackgroundColor=none;" vertex="1" parent="1">
          <mxGeometry x="1070" y="80" width="40" height="52" as="geometry" />
        </mxCell>
        <mxCell id="7XmCqF9aRJ6k3fZhvdl3-194" style="edgeStyle=orthogonalEdgeStyle;rounded=0;orthogonalLoop=1;jettySize=auto;html=1;entryX=0;entryY=0.5;entryDx=0;entryDy=0;" edge="1" parent="1" source="7XmCqF9aRJ6k3fZhvdl3-109" target="7XmCqF9aRJ6k3fZhvdl3-157">
          <mxGeometry relative="1" as="geometry" />
        </mxCell>
        <mxCell id="7XmCqF9aRJ6k3fZhvdl3-195" style="edgeStyle=orthogonalEdgeStyle;rounded=0;orthogonalLoop=1;jettySize=auto;html=1;entryX=0;entryY=0.5;entryDx=0;entryDy=0;" edge="1" parent="1" source="7XmCqF9aRJ6k3fZhvdl3-109" target="7XmCqF9aRJ6k3fZhvdl3-147">
          <mxGeometry relative="1" as="geometry" />
        </mxCell>
        <mxCell id="7XmCqF9aRJ6k3fZhvdl3-196" style="edgeStyle=orthogonalEdgeStyle;rounded=0;orthogonalLoop=1;jettySize=auto;html=1;entryX=0;entryY=0.5;entryDx=0;entryDy=0;" edge="1" parent="1" source="7XmCqF9aRJ6k3fZhvdl3-109" target="7XmCqF9aRJ6k3fZhvdl3-148">
          <mxGeometry relative="1" as="geometry" />
        </mxCell>
        <mxCell id="7XmCqF9aRJ6k3fZhvdl3-197" style="edgeStyle=orthogonalEdgeStyle;rounded=0;orthogonalLoop=1;jettySize=auto;html=1;" edge="1" parent="1" source="7XmCqF9aRJ6k3fZhvdl3-109" target="7XmCqF9aRJ6k3fZhvdl3-149">
          <mxGeometry relative="1" as="geometry" />
        </mxCell>
        <mxCell id="7XmCqF9aRJ6k3fZhvdl3-198" style="edgeStyle=orthogonalEdgeStyle;rounded=0;orthogonalLoop=1;jettySize=auto;html=1;entryX=0;entryY=0.5;entryDx=0;entryDy=0;" edge="1" parent="1" source="7XmCqF9aRJ6k3fZhvdl3-109" target="7XmCqF9aRJ6k3fZhvdl3-150">
          <mxGeometry relative="1" as="geometry" />
        </mxCell>
        <mxCell id="7XmCqF9aRJ6k3fZhvdl3-199" style="edgeStyle=orthogonalEdgeStyle;rounded=0;orthogonalLoop=1;jettySize=auto;html=1;entryX=0;entryY=0.5;entryDx=0;entryDy=0;" edge="1" parent="1" source="7XmCqF9aRJ6k3fZhvdl3-109" target="7XmCqF9aRJ6k3fZhvdl3-151">
          <mxGeometry relative="1" as="geometry" />
        </mxCell>
        <mxCell id="7XmCqF9aRJ6k3fZhvdl3-200" style="edgeStyle=orthogonalEdgeStyle;rounded=0;orthogonalLoop=1;jettySize=auto;html=1;entryX=0;entryY=0.75;entryDx=0;entryDy=0;" edge="1" parent="1" source="7XmCqF9aRJ6k3fZhvdl3-109" target="7XmCqF9aRJ6k3fZhvdl3-158">
          <mxGeometry relative="1" as="geometry" />
        </mxCell>
        <mxCell id="7XmCqF9aRJ6k3fZhvdl3-201" style="edgeStyle=orthogonalEdgeStyle;rounded=0;orthogonalLoop=1;jettySize=auto;html=1;entryX=0;entryY=0.75;entryDx=0;entryDy=0;" edge="1" parent="1" source="7XmCqF9aRJ6k3fZhvdl3-109" target="7XmCqF9aRJ6k3fZhvdl3-156">
          <mxGeometry relative="1" as="geometry" />
        </mxCell>
        <mxCell id="7XmCqF9aRJ6k3fZhvdl3-202" style="edgeStyle=orthogonalEdgeStyle;rounded=0;orthogonalLoop=1;jettySize=auto;html=1;entryX=0;entryY=0.75;entryDx=0;entryDy=0;" edge="1" parent="1" source="7XmCqF9aRJ6k3fZhvdl3-109" target="7XmCqF9aRJ6k3fZhvdl3-155">
          <mxGeometry relative="1" as="geometry" />
        </mxCell>
        <mxCell id="7XmCqF9aRJ6k3fZhvdl3-109" value="chat-call-server" style="sketch=0;pointerEvents=1;shadow=0;dashed=0;html=1;strokeColor=none;fillColor=#005F4B;labelPosition=center;verticalLabelPosition=bottom;verticalAlign=top;align=center;outlineConnect=0;shape=mxgraph.veeam2.linux_server;" vertex="1" parent="1">
          <mxGeometry x="1180" y="229" width="40" height="52" as="geometry" />
        </mxCell>
        <mxCell id="7XmCqF9aRJ6k3fZhvdl3-182" value="" style="edgeStyle=orthogonalEdgeStyle;rounded=0;orthogonalLoop=1;jettySize=auto;html=1;" edge="1" parent="1" source="7XmCqF9aRJ6k3fZhvdl3-110" target="7XmCqF9aRJ6k3fZhvdl3-181">
          <mxGeometry relative="1" as="geometry" />
        </mxCell>
        <mxCell id="7XmCqF9aRJ6k3fZhvdl3-110" value="mongodb" style="sketch=0;pointerEvents=1;shadow=0;dashed=0;html=1;strokeColor=none;fillColor=#005F4B;labelPosition=center;verticalLabelPosition=bottom;verticalAlign=top;align=center;outlineConnect=0;shape=mxgraph.veeam2.linux_server;" vertex="1" parent="1">
          <mxGeometry x="960" y="348" width="40" height="52" as="geometry" />
        </mxCell>
        <mxCell id="7XmCqF9aRJ6k3fZhvdl3-219" style="edgeStyle=orthogonalEdgeStyle;rounded=0;orthogonalLoop=1;jettySize=auto;html=1;entryX=0.5;entryY=0;entryDx=0;entryDy=0;" edge="1" parent="1" source="7XmCqF9aRJ6k3fZhvdl3-111" target="7XmCqF9aRJ6k3fZhvdl3-218">
          <mxGeometry relative="1" as="geometry" />
        </mxCell>
        <mxCell id="7XmCqF9aRJ6k3fZhvdl3-111" value="postgresql-server" style="sketch=0;pointerEvents=1;shadow=0;dashed=0;html=1;strokeColor=none;fillColor=#005F4B;labelPosition=center;verticalLabelPosition=bottom;verticalAlign=top;align=center;outlineConnect=0;shape=mxgraph.veeam2.linux_server;" vertex="1" parent="1">
          <mxGeometry x="1120" y="498" width="40" height="52" as="geometry" />
        </mxCell>
        <mxCell id="7XmCqF9aRJ6k3fZhvdl3-235" style="edgeStyle=orthogonalEdgeStyle;rounded=0;orthogonalLoop=1;jettySize=auto;html=1;entryX=0.25;entryY=0;entryDx=0;entryDy=0;" edge="1" parent="1" source="7XmCqF9aRJ6k3fZhvdl3-113" target="7XmCqF9aRJ6k3fZhvdl3-139">
          <mxGeometry relative="1" as="geometry" />
        </mxCell>
        <mxCell id="7XmCqF9aRJ6k3fZhvdl3-236" style="edgeStyle=orthogonalEdgeStyle;rounded=0;orthogonalLoop=1;jettySize=auto;html=1;entryX=0.5;entryY=1;entryDx=0;entryDy=0;" edge="1" parent="1" source="7XmCqF9aRJ6k3fZhvdl3-113" target="7XmCqF9aRJ6k3fZhvdl3-141">
          <mxGeometry relative="1" as="geometry" />
        </mxCell>
        <mxCell id="7XmCqF9aRJ6k3fZhvdl3-113" value="app-node-server" style="sketch=0;pointerEvents=1;shadow=0;dashed=0;html=1;strokeColor=none;fillColor=#005F4B;labelPosition=center;verticalLabelPosition=bottom;verticalAlign=top;align=center;outlineConnect=0;shape=mxgraph.veeam2.linux_server;" vertex="1" parent="1">
          <mxGeometry x="850" y="180" width="40" height="52" as="geometry" />
        </mxCell>
        <mxCell id="7XmCqF9aRJ6k3fZhvdl3-119" value="" style="endArrow=classic;html=1;rounded=0;" edge="1" parent="1" source="7XmCqF9aRJ6k3fZhvdl3-108" target="7XmCqF9aRJ6k3fZhvdl3-109">
          <mxGeometry width="50" height="50" relative="1" as="geometry">
            <mxPoint x="1010" y="770" as="sourcePoint" />
            <mxPoint x="870" y="670" as="targetPoint" />
          </mxGeometry>
        </mxCell>
        <mxCell id="7XmCqF9aRJ6k3fZhvdl3-120" value="" style="endArrow=classic;html=1;rounded=0;" edge="1" parent="1" source="7XmCqF9aRJ6k3fZhvdl3-104" target="7XmCqF9aRJ6k3fZhvdl3-107">
          <mxGeometry width="50" height="50" relative="1" as="geometry">
            <mxPoint x="1450" y="100" as="sourcePoint" />
            <mxPoint x="1560" y="210" as="targetPoint" />
          </mxGeometry>
        </mxCell>
        <mxCell id="7XmCqF9aRJ6k3fZhvdl3-123" value="" style="endArrow=classic;html=1;rounded=0;" edge="1" parent="1" source="7XmCqF9aRJ6k3fZhvdl3-105" target="7XmCqF9aRJ6k3fZhvdl3-106">
          <mxGeometry width="50" height="50" relative="1" as="geometry">
            <mxPoint x="1140" y="140" as="sourcePoint" />
            <mxPoint x="1250" y="250" as="targetPoint" />
          </mxGeometry>
        </mxCell>
        <mxCell id="7XmCqF9aRJ6k3fZhvdl3-124" value="" style="endArrow=classic;html=1;rounded=0;" edge="1" parent="1" source="7XmCqF9aRJ6k3fZhvdl3-103" target="7XmCqF9aRJ6k3fZhvdl3-113">
          <mxGeometry width="50" height="50" relative="1" as="geometry">
            <mxPoint x="1120" y="168" as="sourcePoint" />
            <mxPoint x="1240" y="280" as="targetPoint" />
          </mxGeometry>
        </mxCell>
        <mxCell id="7XmCqF9aRJ6k3fZhvdl3-165" value="" style="edgeStyle=orthogonalEdgeStyle;rounded=0;orthogonalLoop=1;jettySize=auto;html=1;" edge="1" parent="1" source="7XmCqF9aRJ6k3fZhvdl3-139" target="7XmCqF9aRJ6k3fZhvdl3-164">
          <mxGeometry relative="1" as="geometry" />
        </mxCell>
        <mxCell id="7XmCqF9aRJ6k3fZhvdl3-231" style="edgeStyle=orthogonalEdgeStyle;rounded=0;orthogonalLoop=1;jettySize=auto;html=1;entryX=0;entryY=0.5;entryDx=0;entryDy=0;" edge="1" parent="1" source="7XmCqF9aRJ6k3fZhvdl3-139" target="7XmCqF9aRJ6k3fZhvdl3-29">
          <mxGeometry relative="1" as="geometry" />
        </mxCell>
        <mxCell id="7XmCqF9aRJ6k3fZhvdl3-254" style="edgeStyle=orthogonalEdgeStyle;rounded=0;orthogonalLoop=1;jettySize=auto;html=1;" edge="1" parent="1" source="7XmCqF9aRJ6k3fZhvdl3-139" target="7XmCqF9aRJ6k3fZhvdl3-110">
          <mxGeometry relative="1" as="geometry" />
        </mxCell>
        <mxCell id="7XmCqF9aRJ6k3fZhvdl3-139" value="cskh-serveices" style="rounded=1;whiteSpace=wrap;html=1;" vertex="1" parent="1">
          <mxGeometry x="680" y="354" width="90" height="40" as="geometry" />
        </mxCell>
        <mxCell id="7XmCqF9aRJ6k3fZhvdl3-168" value="" style="edgeStyle=orthogonalEdgeStyle;rounded=0;orthogonalLoop=1;jettySize=auto;html=1;" edge="1" parent="1" source="7XmCqF9aRJ6k3fZhvdl3-141" target="7XmCqF9aRJ6k3fZhvdl3-166">
          <mxGeometry relative="1" as="geometry" />
        </mxCell>
        <mxCell id="7XmCqF9aRJ6k3fZhvdl3-141" value="web-back-ofiice" style="rounded=1;whiteSpace=wrap;html=1;" vertex="1" parent="1">
          <mxGeometry x="650" y="86" width="90" height="40" as="geometry" />
        </mxCell>
        <mxCell id="7XmCqF9aRJ6k3fZhvdl3-192" style="edgeStyle=orthogonalEdgeStyle;rounded=0;orthogonalLoop=1;jettySize=auto;html=1;" edge="1" parent="1" source="7XmCqF9aRJ6k3fZhvdl3-147" target="7XmCqF9aRJ6k3fZhvdl3-170">
          <mxGeometry relative="1" as="geometry" />
        </mxCell>
        <mxCell id="7XmCqF9aRJ6k3fZhvdl3-147" value="call/record" style="rounded=1;whiteSpace=wrap;html=1;" vertex="1" parent="1">
          <mxGeometry x="1310" y="180" width="100" height="40" as="geometry" />
        </mxCell>
        <mxCell id="7XmCqF9aRJ6k3fZhvdl3-191" style="edgeStyle=orthogonalEdgeStyle;rounded=0;orthogonalLoop=1;jettySize=auto;html=1;" edge="1" parent="1" source="7XmCqF9aRJ6k3fZhvdl3-148" target="7XmCqF9aRJ6k3fZhvdl3-171">
          <mxGeometry relative="1" as="geometry" />
        </mxCell>
        <mxCell id="7XmCqF9aRJ6k3fZhvdl3-148" value="call/video" style="rounded=1;whiteSpace=wrap;html=1;" vertex="1" parent="1">
          <mxGeometry x="1310" y="229" width="100" height="42" as="geometry" />
        </mxCell>
        <mxCell id="7XmCqF9aRJ6k3fZhvdl3-190" style="edgeStyle=orthogonalEdgeStyle;rounded=0;orthogonalLoop=1;jettySize=auto;html=1;" edge="1" parent="1" source="7XmCqF9aRJ6k3fZhvdl3-149" target="7XmCqF9aRJ6k3fZhvdl3-172">
          <mxGeometry relative="1" as="geometry" />
        </mxCell>
        <mxCell id="7XmCqF9aRJ6k3fZhvdl3-149" value="call/v-bridge" style="rounded=1;whiteSpace=wrap;html=1;" vertex="1" parent="1">
          <mxGeometry x="1310" y="280" width="100" height="40" as="geometry" />
        </mxCell>
        <mxCell id="7XmCqF9aRJ6k3fZhvdl3-150" value="call/backend" style="rounded=1;whiteSpace=wrap;html=1;" vertex="1" parent="1">
          <mxGeometry x="1310" y="330" width="100" height="40" as="geometry" />
        </mxCell>
        <mxCell id="7XmCqF9aRJ6k3fZhvdl3-189" style="edgeStyle=orthogonalEdgeStyle;rounded=0;orthogonalLoop=1;jettySize=auto;html=1;" edge="1" parent="1" source="7XmCqF9aRJ6k3fZhvdl3-151" target="7XmCqF9aRJ6k3fZhvdl3-174">
          <mxGeometry relative="1" as="geometry" />
        </mxCell>
        <mxCell id="7XmCqF9aRJ6k3fZhvdl3-151" value="call/web" style="rounded=1;whiteSpace=wrap;html=1;" vertex="1" parent="1">
          <mxGeometry x="1310" y="380" width="100" height="40" as="geometry" />
        </mxCell>
        <mxCell id="7XmCqF9aRJ6k3fZhvdl3-187" style="edgeStyle=orthogonalEdgeStyle;rounded=0;orthogonalLoop=1;jettySize=auto;html=1;entryX=0;entryY=0.5;entryDx=0;entryDy=0;" edge="1" parent="1" source="7XmCqF9aRJ6k3fZhvdl3-155" target="7XmCqF9aRJ6k3fZhvdl3-175">
          <mxGeometry relative="1" as="geometry" />
        </mxCell>
        <mxCell id="7XmCqF9aRJ6k3fZhvdl3-155" value="call/stun" style="rounded=1;whiteSpace=wrap;html=1;" vertex="1" parent="1">
          <mxGeometry x="1310" y="70" width="100" height="40" as="geometry" />
        </mxCell>
        <mxCell id="7XmCqF9aRJ6k3fZhvdl3-188" style="edgeStyle=orthogonalEdgeStyle;rounded=0;orthogonalLoop=1;jettySize=auto;html=1;" edge="1" parent="1" source="7XmCqF9aRJ6k3fZhvdl3-156" target="7XmCqF9aRJ6k3fZhvdl3-176">
          <mxGeometry relative="1" as="geometry" />
        </mxCell>
        <mxCell id="7XmCqF9aRJ6k3fZhvdl3-156" value="chat/chat" style="rounded=1;whiteSpace=wrap;html=1;" vertex="1" parent="1">
          <mxGeometry x="1310" y="132" width="100" height="40" as="geometry" />
        </mxCell>
        <mxCell id="7XmCqF9aRJ6k3fZhvdl3-193" style="edgeStyle=orthogonalEdgeStyle;rounded=0;orthogonalLoop=1;jettySize=auto;html=1;" edge="1" parent="1" source="7XmCqF9aRJ6k3fZhvdl3-157" target="7XmCqF9aRJ6k3fZhvdl3-169">
          <mxGeometry relative="1" as="geometry" />
        </mxCell>
        <mxCell id="7XmCqF9aRJ6k3fZhvdl3-217" style="edgeStyle=orthogonalEdgeStyle;rounded=0;orthogonalLoop=1;jettySize=auto;html=1;" edge="1" parent="1" source="7XmCqF9aRJ6k3fZhvdl3-157" target="7XmCqF9aRJ6k3fZhvdl3-111">
          <mxGeometry relative="1" as="geometry" />
        </mxCell>
        <mxCell id="7XmCqF9aRJ6k3fZhvdl3-157" value="chat/noti" style="rounded=1;whiteSpace=wrap;html=1;" vertex="1" parent="1">
          <mxGeometry x="1310" y="504" width="100" height="40" as="geometry" />
        </mxCell>
        <mxCell id="7XmCqF9aRJ6k3fZhvdl3-163" value="" style="edgeStyle=orthogonalEdgeStyle;rounded=0;orthogonalLoop=1;jettySize=auto;html=1;" edge="1" parent="1" source="7XmCqF9aRJ6k3fZhvdl3-158" target="7XmCqF9aRJ6k3fZhvdl3-161">
          <mxGeometry relative="1" as="geometry" />
        </mxCell>
        <mxCell id="7XmCqF9aRJ6k3fZhvdl3-216" style="edgeStyle=orthogonalEdgeStyle;rounded=0;orthogonalLoop=1;jettySize=auto;html=1;" edge="1" parent="1" source="7XmCqF9aRJ6k3fZhvdl3-158" target="7XmCqF9aRJ6k3fZhvdl3-111">
          <mxGeometry relative="1" as="geometry" />
        </mxCell>
        <mxCell id="7XmCqF9aRJ6k3fZhvdl3-158" value="chat-call-gateway-services" style="rounded=1;whiteSpace=wrap;html=1;" vertex="1" parent="1">
          <mxGeometry x="1310" y="440" width="100" height="40" as="geometry" />
        </mxCell>
        <mxCell id="7XmCqF9aRJ6k3fZhvdl3-161" value="9900" style="rounded=1;whiteSpace=wrap;html=1;" vertex="1" parent="1">
          <mxGeometry x="1500" y="440" width="70" height="38" as="geometry" />
        </mxCell>
        <mxCell id="7XmCqF9aRJ6k3fZhvdl3-164" value="4000/tcp&lt;br&gt;5000/tcp&lt;br&gt;80/tcp&lt;br&gt;443/tcp" style="rounded=1;whiteSpace=wrap;html=1;" vertex="1" parent="1">
          <mxGeometry x="490" y="344" width="70" height="60" as="geometry" />
        </mxCell>
        <mxCell id="7XmCqF9aRJ6k3fZhvdl3-166" value="80/tcp" style="rounded=1;whiteSpace=wrap;html=1;" vertex="1" parent="1">
          <mxGeometry x="530" y="86" width="70" height="40" as="geometry" />
        </mxCell>
        <mxCell id="7XmCqF9aRJ6k3fZhvdl3-169" value="5000/tcp" style="rounded=1;whiteSpace=wrap;html=1;" vertex="1" parent="1">
          <mxGeometry x="1505" y="504" width="70" height="40" as="geometry" />
        </mxCell>
        <mxCell id="7XmCqF9aRJ6k3fZhvdl3-170" value="8338/tcp" style="rounded=1;whiteSpace=wrap;html=1;" vertex="1" parent="1">
          <mxGeometry x="1505" y="180" width="70" height="40" as="geometry" />
        </mxCell>
        <mxCell id="7XmCqF9aRJ6k3fZhvdl3-171" value="10000/udp" style="rounded=1;whiteSpace=wrap;html=1;" vertex="1" parent="1">
          <mxGeometry x="1505" y="231" width="70" height="40" as="geometry" />
        </mxCell>
        <mxCell id="7XmCqF9aRJ6k3fZhvdl3-172" value="8888/tcp" style="rounded=1;whiteSpace=wrap;html=1;" vertex="1" parent="1">
          <mxGeometry x="1500" y="280" width="70" height="40" as="geometry" />
        </mxCell>
        <mxCell id="7XmCqF9aRJ6k3fZhvdl3-174" value="8080\tcp&lt;br&gt;8443/tcp" style="rounded=1;whiteSpace=wrap;html=1;" vertex="1" parent="1">
          <mxGeometry x="1500" y="380" width="70" height="40" as="geometry" />
        </mxCell>
        <mxCell id="7XmCqF9aRJ6k3fZhvdl3-175" value="3478/tcp &amp;amp; udp&lt;br&gt;5349/udp" style="rounded=1;whiteSpace=wrap;html=1;" vertex="1" parent="1">
          <mxGeometry x="1490" y="53.5" width="100" height="73" as="geometry" />
        </mxCell>
        <mxCell id="7XmCqF9aRJ6k3fZhvdl3-176" value="8008/tcp" style="rounded=1;whiteSpace=wrap;html=1;" vertex="1" parent="1">
          <mxGeometry x="1505" y="132" width="70" height="40" as="geometry" />
        </mxCell>
        <mxCell id="7XmCqF9aRJ6k3fZhvdl3-181" value="27017/tcp" style="rounded=1;whiteSpace=wrap;html=1;" vertex="1" parent="1">
          <mxGeometry x="945" y="460" width="70" height="40" as="geometry" />
        </mxCell>
        <mxCell id="7XmCqF9aRJ6k3fZhvdl3-185" value="1433/tcp" style="rounded=1;whiteSpace=wrap;html=1;" vertex="1" parent="1">
          <mxGeometry x="740" y="570" width="70" height="40" as="geometry" />
        </mxCell>
        <mxCell id="7XmCqF9aRJ6k3fZhvdl3-218" value="5432/tcp" style="rounded=1;whiteSpace=wrap;html=1;" vertex="1" parent="1">
          <mxGeometry x="1105" y="630" width="70" height="40" as="geometry" />
        </mxCell>
      </root>
    </mxGraphModel>
  </diagram>
</mxfile>
